<?xml version="1.0"?>
<svg width="1280" height="1088" xmlns="http://www.w3.org/2000/svg" xmlns:svg="http://www.w3.org/2000/svg" preserveAspectRatio="xMidYMid meet">
 <metadata>Created by potrace 1.15, written by Peter Selinger 2001-2017</metadata>
 <g class="layer">
  <title>Layer 1</title>
  <g fill="#000000" id="svg_1" transform="translate(0 1088) scale(0.1 -0.1)">
   <path d="m6335,10873c-65,-5 -246,-34 -268,-42c-16,-6 -5,-14 58,-45c43,-20 106,-56 139,-80c82,-58 193,-178 236,-254c19,-34 40,-62 46,-62c28,0 139,81 225,166c110,108 187,150 328,180l84,18l-34,14c-100,42 -287,85 -441,101c-90,10 -281,12 -373,4z" fill="#003f7f" id="svg_2"/>
   <path d="m5210,10829c-88,-10 -215,-33 -318,-56c-80,-18 -76,-31 9,-32c74,-1 157,-50 236,-137c36,-41 69,-74 72,-74c3,1 38,39 76,87c78,96 120,128 238,183l82,39l-160,-1c-88,0 -194,-4 -235,-9z" fill="#003f7f" id="svg_3"/>
   <path d="m5665,10746c-74,-18 -157,-54 -212,-95c-50,-36 -183,-199 -183,-223c0,-26 11,-22 56,15c94,80 229,152 394,211c71,26 75,26 87,9c8,-10 12,-24 11,-32c-2,-8 -61,-40 -133,-71c-233,-100 -292,-140 -393,-268c-38,-49 -76,-145 -118,-303c-5,-17 50,-59 74,-59c6,0 66,37 133,81l121,81l26,-26c21,-21 25,-30 16,-44c-19,-31 -141,-116 -254,-177c-61,-33 -122,-68 -134,-77c-13,-10 -68,-82 -122,-160c-78,-114 -128,-172 -242,-285c-143,-142 -143,-142 -175,-230l-32,-88l1,-410c1,-225 5,-441 9,-480c5,-48 2,-104 -9,-178c-9,-59 -16,-146 -16,-192c0,-87 7,-114 75,-275c27,-63 27,-67 15,-140c-6,-41 -24,-131 -39,-200c-25,-113 -29,-125 -50,-128c-13,-2 -34,-1 -47,2c-27,7 -28,-3 17,208c16,75 29,148 29,163c0,14 -19,70 -41,123c-55,128 -65,203 -49,346c7,61 14,154 17,207c5,88 3,99 -20,145c-14,27 -46,72 -72,101c-60,68 -212,182 -319,239c-112,59 -196,75 -401,76c-181,1 -267,-16 -378,-74c-101,-53 -220,-179 -307,-328c-40,-69 -97,-168 -128,-220c-163,-280 -263,-362 -501,-410c-178,-36 -628,-37 -664,-1c-5,5 -7,24 -3,43l6,33l282,0c322,1 394,11 514,70c95,47 143,100 184,206c41,106 49,197 26,302c-26,114 -67,173 -235,337c-165,161 -215,230 -254,347c-31,94 -52,212 -39,225c5,5 25,11 45,15c41,6 36,16 62,-122c9,-47 32,-114 56,-162c36,-74 52,-94 175,-210c206,-195 260,-279 292,-454l18,-94l38,70c112,203 221,334 340,410c60,38 201,95 237,95c31,0 33,24 5,79c-25,47 -26,59 -26,203c0,84 5,224 12,311l12,157l34,0l35,0l-7,-112c-3,-62 -9,-196 -12,-298l-6,-185l35,-65l35,-65l92,-1c205,-3 350,-28 447,-78c79,-39 222,-139 298,-207l70,-63l6,315l5,314l38,113c21,63 36,115 34,116c-45,32 -98,63 -259,147c-222,116 -298,163 -509,320c-118,87 -150,116 -148,132c2,11 10,25 19,30c14,8 41,-7 138,-79c212,-156 313,-222 436,-285c66,-34 177,-93 248,-131l127,-70l34,26c92,69 208,200 314,353c62,89 126,172 142,183c17,12 30,25 30,30c0,17 -225,121 -295,136c-55,12 -189,17 -635,24c-311,5 -592,14 -625,20c-180,30 -377,-9 -590,-117c-75,-39 -107,-63 -192,-149c-56,-56 -109,-114 -119,-129c-20,-31 -18,-34 64,-65c51,-19 55,-19 89,-4c20,10 41,31 51,51c13,28 21,33 49,33c27,0 33,-4 33,-20c0,-67 -95,-150 -171,-150c-17,0 -79,21 -138,48l-106,47l-150,0c-150,0 -151,0 -218,-33c-135,-67 -316,-221 -478,-409c-113,-131 -169,-216 -258,-391c-91,-181 -132,-288 -176,-457c-39,-148 -85,-258 -132,-314l-28,-33l-25,21l-25,20l23,38c51,86 84,167 112,278c17,64 30,126 30,137c0,22 -2,22 -237,-18c-166,-28 -260,-56 -322,-99c-122,-82 -363,-446 -416,-630c-36,-123 -6,-273 75,-375c59,-74 270,-219 320,-220c16,0 104,86 134,130c20,30 20,73 2,170c-8,41 -12,78 -8,82c4,3 23,9 43,13l37,7l21,-99c12,-54 24,-107 26,-119c3,-11 -7,-44 -21,-71c-25,-51 -76,-108 -236,-262c-123,-118 -148,-182 -148,-379c1,-194 34,-311 131,-454c115,-171 280,-338 382,-387c56,-28 280,-81 292,-70c2,3 -9,31 -26,64c-39,80 -52,156 -39,225c6,30 36,129 68,220l57,165l0,160c0,206 -27,326 -117,528c-22,48 -38,95 -36,104c2,9 18,23 36,30c31,13 33,12 52,-19c54,-89 130,-320 155,-473c31,-190 15,-321 -65,-545c-84,-231 -75,-314 46,-449c88,-98 180,-146 475,-250c263,-93 447,-138 483,-119c12,6 82,57 156,113c144,108 354,258 485,345c44,29 93,64 108,76l28,23l-96,45c-141,66 -351,242 -489,410c-125,151 -211,223 -441,366c-236,146 -324,209 -408,291c-82,81 -86,94 -40,124c24,16 25,16 101,-57c93,-88 160,-137 357,-258c83,-50 186,-117 229,-148c92,-66 230,-200 300,-293c27,-35 109,-116 182,-179c136,-117 225,-172 351,-217l61,-21l128,79c171,107 267,152 399,189c61,17 115,33 122,35c8,3 6,18 -7,53c-32,83 -58,198 -99,438c-45,255 -56,351 -71,599c-22,354 -36,411 -166,689c-46,98 -84,189 -84,201c0,17 9,26 32,34c38,14 28,28 126,-179c151,-319 155,-335 193,-885c14,-211 78,-600 131,-799c17,-64 19,-85 10,-109l-11,-30l52,7c247,31 354,30 567,-7c213,-37 557,-21 713,32c81,28 110,46 189,115c40,34 92,74 114,89c35,22 42,32 47,69c3,24 15,76 26,117c28,99 27,184 0,236c-28,52 -89,124 -226,267c-62,64 -113,120 -113,126c0,5 9,17 20,27c20,18 22,18 80,-40c33,-32 62,-56 66,-53c3,4 -15,55 -40,113c-25,59 -46,114 -46,121c0,8 9,14 21,14c16,0 29,-18 59,-82c21,-46 51,-122 66,-170c23,-71 40,-102 91,-165c35,-43 75,-103 90,-133c24,-48 28,-66 26,-135c-1,-50 -11,-113 -27,-169l-25,-88l57,8c31,5 154,9 272,9l215,0l77,37c216,103 409,275 487,432c35,72 57,164 66,286c5,62 15,102 35,148c16,34 31,62 34,62c3,0 21,-8 41,-17c25,-12 34,-22 30,-32c-27,-71 -46,-151 -53,-236c-20,-214 -112,-378 -298,-532c-39,-32 -88,-73 -110,-91l-39,-33l35,6c19,4 105,22 190,41c356,80 440,94 600,101c175,6 318,-10 465,-52c47,-14 93,-25 102,-25c25,0 195,141 342,284c143,140 254,265 391,441c87,113 273,307 324,340c28,19 28,19 47,-6l18,-24l-108,-106c-59,-58 -170,-183 -246,-279c-227,-283 -399,-462 -612,-634c-40,-32 -73,-61 -73,-65c0,-6 144,-95 290,-178c41,-24 85,-43 97,-43c16,0 37,19 75,70c29,39 60,70 69,70c9,0 27,-9 40,-19l24,-19l-20,-38c-29,-55 -135,-162 -169,-170c-36,-9 -66,6 -325,159c-218,128 -280,154 -442,182c-120,21 -333,21 -464,0c-55,-9 -199,-38 -320,-64c-325,-72 -495,-101 -604,-101c-56,0 -262,-53 -355,-92c-142,-58 -282,-156 -442,-310l-82,-79l30,-72c45,-106 48,-206 10,-352c-28,-109 -28,-110 -60,-113c-29,-3 -32,-1 -32,23c0,15 10,63 21,108c27,101 29,205 6,272c-10,28 -37,86 -62,130c-25,43 -45,84 -45,91c0,7 9,18 21,25c18,9 25,7 48,-14l26,-26l99,90c149,135 249,207 374,267c61,29 112,56 112,59c0,10 -136,-5 -193,-22c-56,-16 -107,-50 -232,-155c-115,-97 -278,-138 -590,-147c-167,-5 -206,-3 -320,17c-255,43 -464,36 -714,-25c-179,-44 -253,-80 -553,-271c-376,-239 -782,-531 -920,-662c-79,-75 -85,-97 -134,-460c-14,-103 -28,-204 -31,-225c-8,-57 36,-136 129,-233l79,-82l13,-88c7,-49 20,-105 29,-126c11,-27 14,-57 10,-117c-5,-62 -2,-91 11,-126c34,-89 143,-205 275,-294c112,-75 250,-151 273,-149c13,1 73,-22 133,-50c61,-28 138,-61 170,-72c85,-29 216,-42 311,-30c106,13 194,31 194,39c0,3 -26,22 -57,41c-72,42 -163,128 -203,190c-54,84 -70,149 -70,285c0,157 23,251 119,479c39,93 69,171 68,173c-2,2 -25,-11 -52,-29c-68,-45 -119,-119 -217,-319c-105,-210 -133,-251 -197,-283l-49,-25l-13,30c-10,26 -10,32 2,40c8,5 28,18 46,30c25,16 55,65 142,238c145,284 204,351 364,412l58,22l-85,44c-47,25 -105,62 -130,84c-24,21 -86,61 -138,88c-51,27 -183,98 -293,159c-178,98 -200,113 -197,133c1,13 7,28 12,33c5,5 94,-36 215,-98c114,-59 208,-106 210,-104c2,2 -13,37 -32,78c-35,75 -63,146 -63,160c0,5 14,13 30,19c26,9 32,8 37,-7c20,-55 96,-207 124,-249c137,-200 321,-294 604,-309c120,-7 136,-4 450,77c192,50 214,60 261,121c39,51 86,88 114,88c43,1 40,15 -36,181c-42,90 -82,181 -90,201c-12,35 -12,39 7,49c11,5 27,9 35,7c8,-2 43,-65 78,-143c133,-297 126,-290 308,-315c266,-38 423,-52 483,-45c85,9 177,48 455,193l245,127l6,60c9,94 99,266 255,486c48,68 125,180 170,249c115,173 119,177 141,164c43,-26 25,-62 -198,-379c-70,-99 -146,-211 -169,-250c-61,-100 -130,-244 -130,-273c0,-21 3,-24 28,-18c83,19 139,17 242,-9c138,-35 294,-41 626,-26c277,14 296,17 424,79c98,47 182,131 234,232c47,92 40,84 71,76c34,-9 32,-32 -11,-118c-38,-75 -117,-167 -185,-213c-21,-15 -39,-31 -39,-34c0,-4 24,-15 53,-25c28,-10 106,-49 172,-87c194,-110 206,-114 435,-114c171,0 200,2 233,19c21,10 83,68 140,130c225,246 268,283 447,385c349,198 570,367 756,579c110,126 139,176 219,376c87,219 118,281 245,492c127,211 154,279 148,371c-3,67 -5,70 -146,307c-150,252 -230,401 -221,410c3,3 21,12 41,20l36,16l80,-143c44,-78 127,-223 186,-321c58,-99 111,-196 116,-215c34,-122 -11,-257 -172,-518c-55,-89 -69,-119 -61,-132c11,-18 109,-78 262,-160c82,-43 208,-136 280,-206c18,-18 6,-65 -17,-65c-10,0 -58,34 -107,75c-50,41 -125,94 -168,117c-43,24 -128,71 -189,106c-63,34 -116,58 -121,53c-4,-4 -46,-102 -93,-217c-46,-114 -96,-228 -110,-252c-41,-69 -161,-207 -300,-343c-104,-102 -161,-148 -297,-238c-93,-62 -225,-144 -295,-183c-149,-83 -172,-98 -231,-152c-85,-76 -291,-308 -284,-320c4,-6 37,-57 74,-114c65,-100 99,-186 81,-204c-5,-5 -24,-11 -43,-14c-34,-6 -36,-5 -49,38c-8,23 -41,83 -73,132l-58,89l-77,-7c-289,-23 -417,-17 -536,28c-33,13 -113,54 -176,90c-125,72 -189,96 -258,96l-45,0l6,-50c8,-66 66,-187 111,-229c38,-37 45,-61 21,-81c-51,-42 -161,111 -202,280l-17,72l-241,-8c-132,-5 -314,-8 -405,-7c-144,2 -180,6 -283,31c-171,42 -168,43 -602,-179c-321,-164 -353,-174 -539,-166c-78,3 -222,17 -321,31c-99,14 -215,28 -258,32l-78,7l-84,-89c-47,-49 -88,-99 -91,-111c-7,-27 32,-116 118,-263l62,-105l4,-108l5,-109l32,-14c17,-7 71,-23 118,-36c82,-21 87,-24 87,-50c0,-65 -14,-69 -130,-38c-104,28 -186,68 -199,97c-6,13 -11,70 -11,126l0,101l-70,124c-78,135 -104,195 -115,260c-4,23 -8,42 -10,42c-2,0 -95,-23 -207,-50c-201,-51 -204,-51 -353,-50c-153,2 -242,-12 -271,-42c-15,-16 -109,-231 -157,-359c-53,-143 -70,-233 -65,-352c3,-90 7,-110 36,-171c72,-153 202,-238 532,-347c193,-63 238,-84 331,-155c56,-43 119,-108 119,-123c0,-4 -9,-16 -20,-26c-20,-18 -21,-18 -58,17c-58,55 -142,117 -191,143c-25,12 -120,46 -210,75l-164,52l-71,-21c-211,-61 -401,-66 -566,-12c-52,16 -96,28 -98,26c-5,-5 114,-81 228,-145c250,-142 569,-246 855,-279c50,-6 257,-11 460,-12c352,-1 378,0 540,25c273,42 472,83 585,121c244,83 445,102 870,84c204,-8 372,-9 545,-3c138,5 372,9 520,8c297,-1 271,3 690,-91l170,-38l330,3c282,2 351,-1 475,-18c204,-27 398,-47 590,-60c186,-12 285,-23 445,-47c118,-17 355,-22 469,-9c130,15 159,84 92,221c-38,78 -55,96 -212,218c-124,96 -223,197 -356,364c-50,62 -92,113 -94,113c-1,0 -53,-16 -116,-36c-176,-55 -315,-76 -510,-76l-168,0l40,-45c21,-25 51,-68 65,-96c23,-47 25,-61 25,-184l0,-133l-35,0l-35,0l0,118c0,102 -3,123 -24,167c-31,67 -115,148 -192,186c-72,36 -118,44 -552,93c-727,84 -757,85 -1070,60c-124,-10 -258,-14 -362,-11c-178,5 -201,10 -344,78c-38,18 -82,32 -97,32c-35,0 -108,-37 -269,-139c-145,-91 -242,-137 -325,-155c-39,-9 -131,-13 -260,-13c-214,0 -261,6 -497,65c-64,16 -128,29 -142,29c-43,0 -116,-34 -213,-97c-51,-34 -123,-72 -160,-85c-61,-21 -84,-23 -233,-22c-91,1 -183,5 -205,10c-36,9 -40,13 -40,42c0,18 2,33 5,34c3,1 66,-4 141,-12c220,-21 330,5 484,115c130,93 194,102 394,55c224,-52 305,-63 476,-63c88,0 187,5 220,11c73,14 201,77 355,173c142,89 225,129 268,129c18,0 84,-22 145,-49c63,-28 140,-55 177,-60c81,-13 221,-14 370,-1c286,24 397,28 514,19c227,-18 1033,-110 1134,-129c27,-5 74,-20 104,-33c45,-20 56,-22 64,-11c7,12 24,12 99,3c111,-14 321,-6 434,16c295,58 602,199 966,445l90,60l18,-21c10,-12 16,-27 14,-33c-10,-32 -353,-247 -539,-339c-70,-34 -127,-67 -128,-72c0,-18 128,-173 230,-279c52,-54 154,-145 225,-201c98,-78 138,-116 162,-156c74,-124 85,-218 34,-301l-32,-51l193,6c209,6 305,21 458,73c74,26 85,33 88,54c1,14 14,74 28,134c24,102 25,118 18,280c-4,116 -3,184 5,211c6,22 47,89 91,149c106,145 115,174 114,381c0,137 -4,177 -28,278c-31,134 -81,287 -128,395l-33,74l24,19c23,19 22,19 -141,19c-91,0 -193,3 -228,7l-62,6l7,-64c13,-108 7,-364 -14,-559c-11,-102 -22,-230 -26,-285c-3,-55 -8,-119 -11,-143c-5,-42 -7,-43 -37,-40l-32,3l3,90c1,50 14,209 28,355c30,300 29,533 -1,670c-45,204 -139,416 -260,585c-36,50 -63,96 -60,104c8,19 -11,10 -108,-53c-131,-87 -182,-149 -327,-396c-104,-178 -155,-250 -263,-375c-134,-157 -279,-291 -404,-375c-60,-40 -147,-111 -194,-157c-78,-77 -89,-84 -108,-74c-11,7 -21,18 -21,26c0,20 111,145 162,182c24,18 76,54 116,81c237,159 455,406 654,738c160,269 196,312 360,420c372,247 547,447 593,676c26,133 21,175 -40,352c-60,171 -84,268 -110,441c-43,293 -114,603 -180,795c-158,455 -398,683 -817,776c-133,30 -425,14 -473,-26c-6,-5 -29,-42 -51,-81c-46,-85 -168,-221 -190,-212c-8,3 -19,14 -25,25c-9,16 -2,28 42,76c68,75 112,142 145,222c37,90 37,152 -1,215c-60,104 -287,309 -719,650c-103,82 -190,155 -193,162c-3,8 3,23 12,33c22,25 17,28 210,-123c418,-328 655,-541 741,-667c42,-62 47,-75 52,-140c4,-54 8,-70 18,-66c40,15 202,28 294,23c234,-13 459,-97 631,-235c161,-129 264,-279 365,-530c90,-222 105,-243 715,-1012c72,-91 167,-219 211,-284c60,-89 89,-124 116,-138c20,-10 78,-57 129,-105c85,-82 93,-93 112,-156c11,-38 26,-110 32,-160c14,-111 6,-368 -16,-516l-15,-104l70,-156c39,-86 79,-167 90,-181l20,-25l0,45c0,149 -35,545 -66,730c-58,348 -165,637 -293,789c-48,57 -61,83 -75,137c-24,93 -88,252 -148,364c-108,203 -222,338 -341,404c-37,21 -74,48 -82,60c-8,12 -19,72 -25,134c-18,196 -49,310 -127,467c-125,254 -384,519 -671,684c-50,29 -93,60 -96,70c-2,9 -8,32 -11,51c-16,80 -92,193 -227,338c-46,49 -117,135 -158,192c-307,421 -867,744 -1608,926c-120,29 -233,65 -319,100c-161,66 -331,116 -512,150c-116,22 -179,27 -431,34c-162,5 -326,12 -365,15c-79,8 -152,-3 -239,-36c-48,-17 -81,-42 -172,-128c-62,-59 -143,-124 -179,-146c-36,-21 -68,-42 -71,-46c-9,-15 84,-186 116,-213c17,-14 35,-26 39,-26c4,0 17,14 30,31c91,123 239,242 348,280c66,23 324,79 366,79c24,0 28,-4 25,-22c-3,-21 -16,-26 -161,-55c-184,-36 -251,-59 -335,-114c-58,-38 -137,-115 -182,-179l-21,-29l23,-5c13,-2 100,-11 193,-20c94,-8 197,-22 230,-31c90,-23 190,-75 290,-149l89,-66l87,0c116,0 119,3 174,209c19,72 44,149 55,171c51,100 325,250 455,250c30,0 102,-26 261,-94c277,-118 376,-155 566,-210c173,-51 273,-91 438,-178c243,-127 439,-277 492,-375c28,-51 48,-139 48,-209l0,-43l73,-36c265,-135 488,-335 829,-745c57,-69 147,-175 200,-236c52,-61 122,-149 154,-195c33,-46 80,-106 107,-134c26,-27 47,-51 47,-53c0,-16 -37,-62 -50,-62c-23,0 -107,90 -188,202c-39,53 -113,145 -164,204c-51,59 -144,169 -206,243c-147,177 -315,355 -422,449c-95,83 -291,217 -360,246c-25,11 -83,36 -130,57c-108,48 -167,65 -311,89c-174,30 -202,42 -464,198c-196,117 -283,157 -402,188c-264,67 -595,49 -1037,-56c-70,-16 -139,-30 -154,-30c-23,0 -33,-11 -71,-78c-137,-240 -346,-527 -480,-658l-73,-71l36,-91c54,-135 56,-179 12,-353c-20,-81 -40,-192 -45,-254c-10,-109 -9,-110 19,-175c27,-59 28,-66 13,-77c-9,-7 -23,-13 -30,-13c-17,0 -59,65 -73,116c-17,57 2,259 35,381c53,200 52,241 -19,394l-35,77l-98,52c-142,77 -302,170 -309,181c-10,17 5,59 21,59c9,0 70,-32 137,-71c146,-85 272,-149 292,-149c25,0 140,114 219,218c78,102 261,376 316,474c18,32 29,63 25,69c-14,24 -222,171 -282,200c-34,16 -86,35 -115,41l-54,11l-109,-58c-60,-32 -201,-111 -314,-175c-113,-64 -250,-140 -306,-168c-93,-48 -111,-63 -241,-195c-153,-155 -188,-209 -251,-389c-53,-149 -65,-239 -59,-433c7,-188 22,-278 83,-482c37,-122 38,-126 19,-139c-32,-24 -60,-16 -92,24c-16,20 -35,48 -42,61c-7,13 -49,71 -92,130c-75,101 -149,246 -149,292c0,17 27,39 48,39c4,0 21,-30 36,-67c35,-86 89,-183 114,-206c19,-17 19,-16 10,35c-4,29 -15,112 -24,183c-13,110 -19,134 -38,155c-13,14 -33,44 -45,67c-24,48 -31,53 -133,89c-87,31 -137,58 -241,132c-80,58 -93,82 -55,106c14,8 34,-2 105,-51c48,-33 111,-72 138,-85c56,-28 164,-62 172,-54c9,9 -83,147 -181,271c-52,66 -107,137 -123,159c-27,37 -27,39 -8,52c11,8 26,13 35,12c21,-4 186,-210 285,-357l84,-123l10,43c25,102 77,250 118,337c41,87 55,105 218,274c182,188 234,255 255,325c21,68 11,83 -119,182c-66,50 -157,123 -203,162c-53,45 -117,87 -176,116c-50,25 -94,49 -97,53c-3,5 2,25 12,44c20,43 19,43 145,-20c50,-25 124,-75 175,-117c48,-41 138,-112 198,-159c142,-111 155,-126 169,-192l11,-56l73,90c40,49 80,103 90,120c16,29 16,31 0,41c-58,33 -84,70 -169,245c-49,100 -109,209 -133,242c-77,105 -223,208 -356,252c-84,28 -258,36 -345,16zm2885,-1568c0,-6 -38,-51 -85,-101c-89,-95 -135,-171 -135,-219c0,-15 7,-69 16,-118c24,-145 0,-259 -102,-479c-24,-52 -44,-96 -44,-98c0,-3 56,49 124,114c204,196 278,224 596,226c156,1 206,-2 250,-16c179,-54 375,-251 491,-494c76,-160 118,-308 166,-585l8,-48l80,61c94,72 156,103 243,120c54,11 65,11 72,-1c26,-41 10,-54 -106,-85c-47,-13 -85,-35 -175,-103c-119,-91 -137,-116 -105,-151c17,-19 64,-35 133,-46c51,-8 57,-15 48,-62l-6,-36l-65,6c-76,6 -164,45 -194,87c-16,22 -20,44 -20,102c0,40 -7,119 -15,176c-52,365 -178,648 -369,829c-143,137 -208,158 -471,150c-271,-7 -307,-22 -502,-208c-144,-139 -205,-186 -290,-228c-66,-33 -330,-114 -343,-106c-10,6 -34,75 -28,80c2,2 62,21 134,43c72,22 141,45 153,51c50,27 192,282 243,436c25,77 29,175 14,342c-9,89 -8,94 19,150c20,39 60,90 127,157c96,98 98,99 118,81c11,-10 20,-22 20,-27zm-3226,-3959c47,-51 54,-63 46,-79c-15,-29 -46,-43 -68,-31c-17,9 -78,78 -96,109c-9,15 29,62 50,62c6,0 37,-27 68,-61zm1378,-489c7,0 8,-36 3,-109c-9,-145 4,-191 89,-306c36,-48 63,-92 60,-100c-8,-21 -43,-29 -60,-14c-32,27 -106,131 -132,186c-25,53 -27,68 -27,183c0,131 12,177 42,166c8,-3 19,-6 25,-6zm-3471,-1166c165,-114 329,-241 329,-254c0,-4 -6,-13 -14,-19c-11,-9 -40,8 -138,81c-68,51 -179,131 -246,177c-113,77 -133,97 -115,114c14,15 36,3 184,-99z" fill="#003f7f" id="svg_4"/>
   <path d="m4630,10694c-65,-25 -65,-25 -219,-13c-287,22 -553,1 -821,-65c-362,-90 -724,-280 -985,-517c-51,-46 -72,-59 -97,-59c-39,0 -134,-36 -255,-96c-201,-99 -327,-199 -618,-491l-200,-201l-80,-25c-44,-14 -105,-32 -135,-41c-49,-14 -72,-31 -200,-151c-80,-75 -185,-164 -233,-197c-103,-71 -223,-195 -301,-312c-67,-99 -172,-314 -216,-443c-18,-51 -52,-128 -77,-170c-110,-191 -156,-306 -173,-432c-13,-92 -1,-179 31,-244l20,-39l62,65c34,36 69,67 77,69c11,4 9,16 -15,69c-23,53 -29,81 -33,165c-2,58 1,125 8,158c24,119 185,396 328,566c79,95 139,140 225,169c85,29 267,68 385,82c65,8 111,18 122,28c10,9 43,70 73,136c66,147 144,288 205,375c161,227 455,498 631,582c63,30 73,32 243,39c97,4 185,12 196,18c10,5 61,56 112,111c105,114 142,142 268,205c113,56 204,88 327,115c84,18 117,21 206,15l106,-6l7,83c10,117 51,200 91,184c27,-10 29,-37 6,-82c-16,-33 -21,-63 -21,-118l0,-73l46,-7c26,-3 196,-6 378,-6c397,-1 679,-13 770,-34c37,-9 102,-32 144,-51c41,-20 79,-32 83,-28c4,5 23,60 43,123c20,63 47,132 61,152c29,43 30,42 -38,143c-59,88 -163,192 -206,206c-20,7 -76,15 -126,18c-84,6 -90,8 -93,29c-4,29 -29,28 -112,-4z" fill="#003f7f" id="svg_5"/>
   <path d="m8325,10337c-116,-38 -282,-139 -314,-191c-11,-18 -36,-92 -55,-164c-20,-72 -42,-147 -50,-167c-18,-43 -23,-43 126,-11c202,43 283,51 518,51c243,0 302,-7 452,-56c108,-35 187,-75 391,-197c201,-120 242,-136 425,-172c81,-16 180,-40 221,-54c41,-14 77,-26 79,-26c13,0 -8,131 -26,165c-55,107 -238,243 -513,381c-162,81 -216,101 -413,158c-162,47 -250,81 -549,208c-104,44 -203,81 -220,84c-18,2 -50,-2 -72,-9z" fill="#003f7f" id="svg_6"/>
   <path d="m2172,10010c-130,-47 -302,-157 -491,-317c-100,-85 -373,-360 -392,-395c-9,-16 -6,-16 38,-3c27,8 52,15 57,15c5,0 104,96 220,213c258,261 374,356 569,466c31,18 57,34 57,37c0,2 -1,4 -2,3c-2,0 -27,-9 -56,-19z" fill="#003f7f" id="svg_7"/>
   <path d="m6685,9884c-33,-43 -102,-127 -153,-186c-51,-60 -89,-108 -85,-108c5,0 85,43 178,96c94,53 227,128 297,167c71,40 128,75 128,78c0,7 -69,16 -205,25l-100,7l-60,-79z" fill="#003f7f" id="svg_8"/>
   <path d="m11450,7408c0,-7 9,-53 20,-103c11,-49 38,-197 60,-329c47,-282 54,-310 126,-514c53,-150 55,-160 49,-227c-15,-169 -60,-295 -149,-419c-50,-70 -187,-205 -294,-291l-73,-58l35,-36c93,-97 205,-303 276,-506c54,-156 33,-146 305,-147c173,-2 206,1 365,30c96,17 202,33 235,34c56,3 60,2 63,-21c2,-13 0,-27 -5,-32c-5,-5 -95,-23 -200,-40c-105,-18 -197,-35 -203,-39c-9,-5 -8,-15 4,-38c31,-61 83,-198 114,-302c49,-167 72,-299 79,-458l6,-146l50,54c80,87 122,148 190,276c65,122 152,259 179,282c11,9 19,8 36,-4c12,-8 22,-19 22,-23c0,-5 -23,-44 -52,-87c-28,-43 -85,-138 -125,-212c-72,-131 -135,-223 -187,-271c-14,-14 -26,-28 -26,-32c0,-4 44,-55 98,-113c72,-77 102,-118 111,-148l13,-43l20,39c37,72 106,300 137,451c44,216 61,364 68,580l5,190l-31,90c-17,50 -64,157 -104,239c-81,168 -92,168 -62,5c20,-108 17,-129 -18,-129c-21,0 -27,8 -42,63c-29,100 -31,231 -6,392c54,348 43,684 -26,786c-10,14 -47,52 -83,83c-62,56 -65,57 -71,35c-4,-13 -7,-54 -8,-90c-1,-93 -27,-229 -62,-331c-45,-131 -69,-252 -69,-350c0,-86 -1,-88 -26,-94c-14,-4 -30,-2 -37,5c-33,33 -6,262 49,424c44,126 64,229 71,354l6,122l-32,66c-43,86 -146,226 -447,605c-137,173 -271,343 -297,378c-50,64 -57,71 -57,50z" fill="#003f7f" id="svg_9"/>
   <path d="m208,7241c-13,-11 -35,-41 -49,-68c-13,-26 -43,-79 -66,-118c-129,-216 -124,-436 17,-730c73,-153 159,-279 281,-411c39,-43 59,-74 66,-105c44,-176 56,-219 84,-285c80,-192 275,-415 483,-552c201,-133 446,-244 696,-317c122,-35 427,-101 435,-94c7,7 53,413 48,425c-3,7 -37,29 -76,49l-72,37l-56,-54c-83,-79 -169,-122 -244,-123c-81,0 -93,6 -87,44c4,31 5,31 65,31c41,0 75,7 104,21c44,21 143,104 143,120c0,5 -29,41 -65,80c-36,38 -86,99 -112,135c-46,61 -52,66 -138,99c-49,19 -125,55 -167,81c-92,54 -75,57 -297,-46c-189,-88 -249,-104 -366,-96c-49,3 -112,11 -140,19c-47,12 -50,14 -47,42c2,16 5,32 7,34c2,2 33,-2 68,-8c91,-16 215,-14 278,5c78,23 262,112 255,123c-3,5 -39,15 -79,21c-101,17 -215,55 -263,87c-125,85 -256,228 -375,407c-96,144 -124,225 -140,394c-22,246 13,392 122,507c27,29 49,56 49,61c-1,5 -38,31 -84,58c-46,26 -110,70 -142,97c-65,54 -97,61 -136,30z" fill="#003f7f" id="svg_10"/>
   <path d="m1948,5293c27,-37 67,-73 122,-110c42,-28 144,-83 154,-83c5,0 56,109 56,120c0,5 -39,18 -87,29c-49,11 -121,32 -162,46c-98,33 -108,33 -83,-2z" fill="#003f7f" id="svg_11"/>
   <path d="m12263,3675c-17,-14 -42,-42 -54,-62c-13,-21 -56,-84 -96,-141c-42,-60 -75,-119 -79,-140c-4,-20 -2,-95 5,-167c12,-133 9,-171 -22,-302c-9,-35 -12,-63 -7,-63c4,0 43,23 86,51c108,70 264,230 348,357l69,103l-6,79c-6,97 -18,117 -129,227l-83,82l-32,-24z" fill="#003f7f" id="svg_12"/>
   <path d="m6340,2833c-169,-17 -342,-52 -365,-74c-14,-14 102,-234 183,-349c83,-116 221,-262 327,-345c44,-35 90,-74 101,-87c31,-34 354,-583 476,-808c110,-203 293,-570 331,-662c65,-158 118,-241 216,-339c67,-67 103,-94 163,-123c96,-46 149,-52 258,-32c103,20 120,35 120,110c0,86 -28,179 -180,606c-29,80 -60,181 -69,225l-17,79l-120,64c-253,137 -572,352 -679,458c-107,107 -149,216 -176,447c-17,153 -32,195 -154,431c-62,122 -130,263 -150,314l-37,92l-97,-2c-53,0 -112,-3 -131,-5z" fill="#003f7f" id="svg_13"/>
   <path d="m6657,2833c-3,-5 -1,-17 3,-28c6,-15 24,-23 76,-33c38,-7 191,-42 339,-78c612,-148 660,-155 1148,-154c203,1 372,-2 375,-5c20,-20 -59,-25 -400,-25c-481,0 -512,4 -1103,145c-424,101 -405,97 -405,75c0,-45 38,-68 193,-119c194,-63 324,-96 502,-126c320,-54 583,-57 948,-10c119,16 220,25 224,21c18,-18 -34,-30 -253,-57c-520,-63 -970,-18 -1453,146c-58,19 -106,33 -108,32c-2,-2 11,-31 28,-65c34,-68 32,-67 149,-77c41,-3 208,-33 371,-66c337,-68 499,-83 709,-69c137,9 190,19 452,85c183,46 218,52 218,35c0,-11 -19,-17 -285,-85c-397,-101 -606,-100 -1140,9c-223,46 -393,72 -403,61c-3,-3 4,-26 16,-50c17,-36 27,-45 48,-45c14,0 103,-15 197,-34c284,-57 403,-69 682,-69c259,0 362,7 675,49c237,32 312,48 401,84c84,35 79,34 79,16c0,-18 -88,-61 -167,-81c-32,-9 -134,-26 -228,-40c-358,-51 -459,-59 -750,-59c-310,-1 -400,8 -709,70c-93,19 -174,34 -180,34c-6,0 27,-38 74,-85c147,-148 250,-184 550,-192c226,-6 334,5 822,87c607,101 627,101 1138,-10c124,-27 248,-52 275,-56l50,-6l-30,32c-40,43 -167,145 -235,188c-84,55 -194,94 -475,172c-273,76 -322,94 -294,105c19,7 446,-107 592,-158c124,-43 223,-101 337,-198c52,-44 115,-96 138,-116l44,-37l121,-4l121,-5l-99,107c-132,144 -194,199 -293,264c-137,89 -274,139 -541,196c-93,20 -146,36 -149,45c-6,18 54,10 237,-31c368,-82 508,-167 814,-495c65,-70 92,-93 112,-93c17,0 25,-5 25,-17c0,-14 -14,-15 -149,-9c-219,10 -369,30 -618,86c-296,66 -386,80 -525,80c-118,0 -346,-24 -361,-39c-4,-4 28,-13 72,-20c44,-6 183,-37 308,-67c457,-110 371,-99 796,-99c275,0 377,-3 377,-11c0,-18 -115,-25 -415,-26c-317,-1 -337,1 -695,87c-146,35 -308,71 -360,79c-52,9 -124,21 -160,27c-59,10 -85,8 -280,-24c-118,-20 -239,-39 -267,-43c-29,-3 -50,-10 -47,-15c3,-5 31,-16 62,-25c31,-9 146,-52 256,-96c232,-92 343,-126 521,-162c400,-79 762,-113 1031,-96c122,8 346,37 437,56c20,4 27,2 27,-9c0,-19 -49,-31 -230,-56c-204,-28 -359,-35 -550,-22c-464,30 -855,106 -1165,226c-253,99 -324,125 -383,140c-52,14 -56,13 -154,-20c-111,-38 -118,-40 -118,-24c0,5 26,21 58,35c31,13 66,29 77,34c13,7 -29,8 -125,4c-304,-12 -510,36 -648,153c-29,25 -55,43 -58,40c-3,-3 -1,-27 4,-54c6,-26 18,-103 27,-171c35,-267 80,-335 355,-529c114,-81 299,-196 443,-275c140,-78 276,-125 486,-168c137,-28 179,-32 355,-35c111,-2 274,-12 363,-21c169,-19 281,-15 453,17c61,11 63,13 35,21c-16,5 -190,13 -385,18c-229,6 -383,14 -435,24c-541,98 -991,308 -1239,578l-67,73l35,-70c49,-96 112,-172 187,-229c185,-140 484,-278 683,-319c91,-18 105,-43 19,-34c-137,14 -447,143 -627,260c-102,67 -203,161 -251,233c-54,82 -196,436 -181,451c12,12 35,-20 56,-80c33,-92 40,-91 40,1c0,45 4,82 10,82c11,0 17,-36 24,-138c6,-95 33,-140 145,-253c290,-290 895,-523 1416,-545c93,-4 126,-3 115,5c-8,6 -27,11 -41,11c-29,0 -359,53 -469,76c-479,97 -675,222 -996,635c-101,130 -118,156 -105,163c12,8 29,-9 100,-103c95,-124 74,-115 295,-122c149,-5 261,-17 506,-53c613,-88 696,-98 832,-94c129,3 170,-8 93,-25c-96,-21 -337,-1 -800,67c-452,66 -685,90 -671,68c18,-30 540,-199 763,-248c60,-13 136,-17 333,-18l255,-2l152,-37c158,-39 264,-56 346,-57c37,0 47,-4 47,-16c0,-28 -185,-13 -365,30c-195,47 -278,56 -522,56c-223,0 -253,5 -513,80c-284,83 -527,174 -535,201c-5,14 -16,19 -46,19c-21,0 -39,-3 -39,-7c1,-21 62,-78 112,-106c32,-18 94,-57 140,-88c94,-64 172,-95 367,-144c328,-82 677,-134 1011,-151c151,-7 290,6 391,36c69,21 99,25 99,12c0,-11 -59,-37 -135,-59c-50,-14 -99,-17 -287,-16c-322,2 -553,29 -923,108c-285,61 -450,115 -538,176l-32,23l20,-23c11,-13 45,-40 75,-61c172,-117 380,-182 815,-254c390,-65 614,-61 913,15c88,22 127,28 134,21c14,-14 -11,-24 -137,-58c-75,-20 -269,-52 -333,-55c-14,0 -13,-2 3,-9c59,-25 349,1 605,55c86,18 184,55 173,66c-4,4 -48,22 -98,39c-230,81 -628,299 -681,374c-28,41 5,26 122,-53c154,-104 443,-249 598,-301c66,-22 127,-40 135,-40c26,0 185,80 175,89c-23,21 -383,154 -505,187c-254,68 -273,74 -288,89c-14,13 -13,15 4,15c50,0 446,-115 585,-171c252,-100 256,-101 296,-84c19,8 34,18 34,22c0,4 -35,25 -78,45c-107,51 -319,238 -269,238c7,0 56,-38 110,-85c98,-85 124,-102 229,-148l55,-25l52,40c28,21 51,43 51,47c0,14 -195,100 -316,139c-110,36 -154,62 -105,62c36,0 230,-67 346,-120l110,-50l46,51c67,72 179,273 179,320c0,56 -38,266 -62,343c-41,133 -148,261 -326,395c-72,54 -92,64 -147,72c-34,6 -85,9 -111,7l-49,-3l34,-20c276,-165 434,-324 489,-495c40,-122 84,-311 77,-328c-10,-26 -18,-6 -69,182c-25,93 -58,190 -73,217c-71,132 -210,257 -416,377l-126,72l-78,0c-116,0 -118,-10 -12,-64c181,-92 252,-152 427,-355c136,-158 181,-220 250,-352c64,-120 70,-139 43,-139c-14,0 -23,11 -32,38c-16,49 -90,180 -147,261c-107,152 -316,372 -414,437c-144,96 -380,192 -446,183c-21,-4 -16,-10 40,-50c34,-26 119,-78 188,-117c69,-39 163,-92 210,-118c62,-36 111,-75 185,-149c91,-91 109,-116 198,-272c95,-168 107,-193 87,-193c-13,0 -56,66 -125,190c-144,261 -191,302 -598,528c-62,34 -152,93 -200,131l-87,68l-102,12c-200,24 -436,13 -563,-25c-43,-13 -79,-14 -245,-5c-107,6 -315,11 -462,11c-232,0 -268,2 -268,15c0,13 29,15 193,16c227,2 209,7 -159,44c-292,30 -324,35 -324,46c0,14 65,11 345,-16c365,-35 402,-37 385,-27c-31,19 -344,66 -520,77c-101,7 -477,-11 -512,-24c-16,-6 4,-16 89,-44c248,-82 433,-114 730,-122c219,-7 273,-12 273,-27c0,-8 -72,-9 -252,-5c-374,9 -530,40 -923,180c-22,8 -96,17 -165,21c-69,4 -181,13 -250,21c-138,16 -216,19 -223,8zm1927,-817c295,-144 343,-153 916,-166c498,-11 594,-18 744,-56c111,-28 166,-54 166,-79c0,-24 -24,-28 -66,-10c-83,34 -240,66 -373,76c-75,5 -318,13 -541,18c-528,12 -576,21 -856,157c-72,35 -137,70 -144,79c-14,16 -7,45 11,45c6,0 70,-29 143,-64zm-1542,-7c3,-30 7,-76 7,-104c1,-36 13,-74 41,-135c21,-46 37,-86 35,-88c-24,-24 -94,112 -106,206c-13,103 -11,184 4,180c6,-3 15,-29 19,-59zm1523,-114c188,-93 270,-128 330,-142c83,-19 118,-19 999,-10c123,1 180,-1 183,-9c5,-15 -358,-28 -787,-29c-432,0 -407,-6 -760,170c-148,74 -271,139 -276,146c-18,29 74,-8 311,-126zm-1414,-7c9,-136 39,-195 179,-358c63,-73 80,-100 65,-100c-12,0 -109,98 -156,156c-89,112 -135,252 -121,369c8,68 27,31 33,-67z" fill="#003f7f" id="svg_14"/>
   <path d="m8618,2703c6,-2 18,-2 25,0c6,3 1,5 -13,5c-14,0 -19,-2 -12,-5z" fill="#003f7f" id="svg_15"/>
   <path d="m10530,2601c0,-3 22,-22 47,-41c127,-95 217,-201 269,-315c15,-32 39,-121 54,-197c16,-77 30,-142 33,-144c3,-3 11,12 17,32c9,26 11,74 7,152c-5,106 -8,121 -41,186c-24,49 -68,108 -136,184c-55,61 -109,116 -119,121c-22,12 -131,30 -131,22z" fill="#003f7f" id="svg_16"/>
   <path d="m10923,2583c-24,-2 -43,-9 -43,-14c0,-5 31,-54 70,-107c38,-53 88,-135 111,-181c35,-73 43,-82 51,-66c6,10 13,48 15,84c4,55 -1,83 -27,166c-17,55 -39,106 -48,113c-15,12 -41,13 -129,5z" fill="#003f7f" id="svg_17"/>
   <path d="m10730,2573c0,-5 38,-51 84,-103c47,-52 98,-117 115,-145c36,-60 61,-150 61,-222c0,-29 4,-53 8,-53c4,0 27,19 50,43l41,42l-38,87c-21,48 -49,104 -62,125c-44,72 -151,213 -169,223c-22,12 -90,13 -90,3z" fill="#003f7f" id="svg_18"/>
  </g>
 </g>
</svg>